<svg xmlns="http://www.w3.org/2000/svg" viewBox="0 0 64 64" fill="none">
  <defs>
    <filter id="g"><feGaussianBlur stdDeviation="1" result="b"/><feMerge><feMergeNode in="b"/><feMergeNode in="SourceGraphic"/></feMerge></filter>
  </defs>
  <!-- Prop/Accessory -->
  <rect x="20" y="0" width="6" height="4" fill="#FBBF24"/><rect x="26" y="0" width="6" height="4" fill="#FBBF24"/><rect x="32" y="0" width="6" height="4" fill="#FBBF24"/><rect x="26" y="-4" width="6" height="4" fill="#FBBF24"/>
  <!-- Head -->
  <rect x="18" y="4" width="6" height="6" fill="#06B6D4"/>
  <rect x="24" y="4" width="6" height="6" fill="#06B6D4"/>
  <rect x="30" y="4" width="6" height="6" fill="#06B6D4"/>
  <rect x="12" y="10" width="6" height="6" fill="#06B6D4"/>
  <rect x="18" y="10" width="6" height="6" fill="#E0F2FE"/>
  <rect x="24" y="10" width="6" height="6" fill="#2563EB"/>
  <rect x="30" y="10" width="6" height="6" fill="#E0F2FE"/>
  <rect x="36" y="10" width="6" height="6" fill="#06B6D4"/>
  <rect x="12" y="16" width="6" height="6" fill="#06B6D4"/>
  <rect x="18" y="16" width="6" height="6" fill="#06B6D4"/>
  <rect x="24" y="16" width="6" height="6" fill="#06B6D4"/>
  <rect x="30" y="16" width="6" height="6" fill="#06B6D4"/>
  <rect x="36" y="16" width="6" height="6" fill="#06B6D4"/>
  <!-- Body -->
  <rect x="18" y="22" width="6" height="6" fill="#1E3A5F"/>
  <rect x="24" y="22" width="6" height="6" fill="#1E3A5F"/>
  <rect x="30" y="22" width="6" height="6" fill="#1E3A5F"/>
  <rect x="6" y="28" width="6" height="6" fill="#1E3A5F" opacity="0.7"/>
  <rect x="18" y="28" width="6" height="6" fill="#1E3A5F"/>
  <rect x="24" y="28" width="6" height="6" fill="#1E3A5F"/>
  <rect x="30" y="28" width="6" height="6" fill="#1E3A5F"/>
  <rect x="42" y="28" width="6" height="6" fill="#1E3A5F" opacity="0.7"/>
  <!-- Legs -->
  <rect x="18" y="34" width="6" height="6" fill="#1E3A5F"/>
  <rect x="30" y="34" width="6" height="6" fill="#1E3A5F"/>
  <rect x="18" y="40" width="6" height="6" fill="#172554"/>
  <rect x="30" y="40" width="6" height="6" fill="#172554"/>
  <!-- Soul spark -->
  <rect x="42" y="2" width="5" height="5" fill="#FBBF24" filter="url(#g)"/>
  <rect x="47" y="7" width="3" height="3" fill="#FBBF24" opacity="0.4"/>
</svg>