<svg xmlns="http://www.w3.org/2000/svg" viewBox="0 0 64 64" fill="none">
  <defs>
    <filter id="g"><feGaussianBlur stdDeviation="1" result="b"/><feMerge><feMergeNode in="b"/><feMergeNode in="SourceGraphic"/></feMerge></filter>
  </defs>
  <!-- Prop/Accessory -->
  <rect x="8" y="0" width="14" height="6" rx="1" fill="#06B6D4"/><circle cx="44" cy="34" r="6" fill="none" stroke="#F43F5E" stroke-width="2"/><rect x="42" y="32" width="2" height="2" fill="#FBBF24"/><rect x="46" y="32" width="2" height="2" fill="#2563EB"/><rect x="42" y="36" width="2" height="2" fill="#10B981"/>
  <!-- Head -->
  <rect x="18" y="4" width="6" height="6" fill="#06B6D4"/>
  <rect x="24" y="4" width="6" height="6" fill="#06B6D4"/>
  <rect x="30" y="4" width="6" height="6" fill="#06B6D4"/>
  <rect x="12" y="10" width="6" height="6" fill="#06B6D4"/>
  <rect x="18" y="10" width="6" height="6" fill="#E0F2FE"/>
  <rect x="24" y="10" width="6" height="6" fill="#06B6D4"/>
  <rect x="30" y="10" width="6" height="6" fill="#E0F2FE"/>
  <rect x="36" y="10" width="6" height="6" fill="#06B6D4"/>
  <rect x="12" y="16" width="6" height="6" fill="#06B6D4"/>
  <rect x="18" y="16" width="6" height="6" fill="#06B6D4"/>
  <rect x="24" y="16" width="6" height="6" fill="#06B6D4"/>
  <rect x="30" y="16" width="6" height="6" fill="#06B6D4"/>
  <rect x="36" y="16" width="6" height="6" fill="#06B6D4"/>
  <!-- Body -->
  <rect x="18" y="22" width="6" height="6" fill="#0E7490"/>
  <rect x="24" y="22" width="6" height="6" fill="#0E7490"/>
  <rect x="30" y="22" width="6" height="6" fill="#0E7490"/>
  <rect x="6" y="28" width="6" height="6" fill="#0E7490" opacity="0.7"/>
  <rect x="18" y="28" width="6" height="6" fill="#0E7490"/>
  <rect x="24" y="28" width="6" height="6" fill="#0E7490"/>
  <rect x="30" y="28" width="6" height="6" fill="#0E7490"/>
  <rect x="42" y="28" width="6" height="6" fill="#0E7490" opacity="0.7"/>
  <!-- Legs -->
  <rect x="18" y="34" width="6" height="6" fill="#0E7490"/>
  <rect x="30" y="34" width="6" height="6" fill="#0E7490"/>
  <rect x="18" y="40" width="6" height="6" fill="#155E75"/>
  <rect x="30" y="40" width="6" height="6" fill="#155E75"/>
  <!-- Soul spark -->
  <rect x="42" y="2" width="5" height="5" fill="#06B6D4" filter="url(#g)"/>
  <rect x="47" y="7" width="3" height="3" fill="#06B6D4" opacity="0.4"/>
</svg>