<svg xmlns="http://www.w3.org/2000/svg" viewBox="0 0 64 64" fill="none">
  <defs>
    <filter id="g"><feGaussianBlur stdDeviation="1" result="b"/><feMerge><feMergeNode in="b"/><feMergeNode in="SourceGraphic"/></feMerge></filter>
  </defs>
  <!-- Prop/Accessory -->
  <rect x="14" y="0" width="24" height="6" rx="1" fill="#F97316"/><circle cx="46" cy="28" r="7" fill="none" stroke="#F97316" stroke-width="2"/><rect x="44" y="26" width="4" height="4" fill="#F97316"/>
  <!-- Head -->
  <rect x="18" y="4" width="6" height="6" fill="#06B6D4"/>
  <rect x="24" y="4" width="6" height="6" fill="#06B6D4"/>
  <rect x="30" y="4" width="6" height="6" fill="#06B6D4"/>
  <rect x="12" y="10" width="6" height="6" fill="#06B6D4"/>
  <rect x="18" y="10" width="6" height="6" fill="#E0F2FE"/>
  <rect x="24" y="10" width="6" height="6" fill="#F97316"/>
  <rect x="30" y="10" width="6" height="6" fill="#E0F2FE"/>
  <rect x="36" y="10" width="6" height="6" fill="#06B6D4"/>
  <rect x="12" y="16" width="6" height="6" fill="#06B6D4"/>
  <rect x="18" y="16" width="6" height="6" fill="#06B6D4"/>
  <rect x="24" y="16" width="6" height="6" fill="#06B6D4"/>
  <rect x="30" y="16" width="6" height="6" fill="#06B6D4"/>
  <rect x="36" y="16" width="6" height="6" fill="#06B6D4"/>
  <!-- Body -->
  <rect x="18" y="22" width="6" height="6" fill="#EA580C"/>
  <rect x="24" y="22" width="6" height="6" fill="#EA580C"/>
  <rect x="30" y="22" width="6" height="6" fill="#EA580C"/>
  <rect x="6" y="28" width="6" height="6" fill="#EA580C" opacity="0.7"/>
  <rect x="18" y="28" width="6" height="6" fill="#EA580C"/>
  <rect x="24" y="28" width="6" height="6" fill="#EA580C"/>
  <rect x="30" y="28" width="6" height="6" fill="#EA580C"/>
  <rect x="42" y="28" width="6" height="6" fill="#EA580C" opacity="0.7"/>
  <!-- Legs -->
  <rect x="18" y="34" width="6" height="6" fill="#EA580C"/>
  <rect x="30" y="34" width="6" height="6" fill="#EA580C"/>
  <rect x="18" y="40" width="6" height="6" fill="#C2410C"/>
  <rect x="30" y="40" width="6" height="6" fill="#C2410C"/>
  <!-- Soul spark -->
  <rect x="42" y="2" width="5" height="5" fill="#F97316" filter="url(#g)"/>
  <rect x="47" y="7" width="3" height="3" fill="#F97316" opacity="0.4"/>
</svg>