<svg xmlns="http://www.w3.org/2000/svg" viewBox="0 0 64 64" fill="none">
  <defs>
    <filter id="g"><feGaussianBlur stdDeviation="1" result="b"/><feMerge><feMergeNode in="b"/><feMergeNode in="SourceGraphic"/></feMerge></filter>
  </defs>
  <!-- Prop/Accessory -->
  <circle cx="46" cy="26" r="7" fill="none" stroke="#10B981" stroke-width="2"/><rect x="51" y="31" width="8" height="2" rx="1" fill="#10B981" transform="rotate(45, 51, 31)"/>
  <!-- Head -->
  <rect x="18" y="4" width="6" height="6" fill="#06B6D4"/>
  <rect x="24" y="4" width="6" height="6" fill="#06B6D4"/>
  <rect x="30" y="4" width="6" height="6" fill="#06B6D4"/>
  <rect x="12" y="10" width="6" height="6" fill="#06B6D4"/>
  <rect x="18" y="10" width="6" height="6" fill="#E0F2FE"/>
  <rect x="24" y="10" width="6" height="6" fill="#10B981"/>
  <rect x="30" y="10" width="6" height="6" fill="#E0F2FE"/>
  <rect x="36" y="10" width="6" height="6" fill="#06B6D4"/>
  <rect x="12" y="16" width="6" height="6" fill="#06B6D4"/>
  <rect x="18" y="16" width="6" height="6" fill="#06B6D4"/>
  <rect x="24" y="16" width="6" height="6" fill="#06B6D4"/>
  <rect x="30" y="16" width="6" height="6" fill="#06B6D4"/>
  <rect x="36" y="16" width="6" height="6" fill="#06B6D4"/>
  <!-- Body -->
  <rect x="18" y="22" width="6" height="6" fill="#047857"/>
  <rect x="24" y="22" width="6" height="6" fill="#047857"/>
  <rect x="30" y="22" width="6" height="6" fill="#047857"/>
  <rect x="6" y="28" width="6" height="6" fill="#047857" opacity="0.7"/>
  <rect x="18" y="28" width="6" height="6" fill="#047857"/>
  <rect x="24" y="28" width="6" height="6" fill="#047857"/>
  <rect x="30" y="28" width="6" height="6" fill="#047857"/>
  <rect x="42" y="28" width="6" height="6" fill="#047857" opacity="0.7"/>
  <!-- Legs -->
  <rect x="18" y="34" width="6" height="6" fill="#047857"/>
  <rect x="30" y="34" width="6" height="6" fill="#047857"/>
  <rect x="18" y="40" width="6" height="6" fill="#065F46"/>
  <rect x="30" y="40" width="6" height="6" fill="#065F46"/>
  <!-- Soul spark -->
  <rect x="42" y="2" width="5" height="5" fill="#10B981" filter="url(#g)"/>
  <rect x="47" y="7" width="3" height="3" fill="#10B981" opacity="0.4"/>
</svg>