<svg xmlns="http://www.w3.org/2000/svg" viewBox="0 0 64 64" fill="none">
  <defs>
    <filter id="g">
      <feGaussianBlur stdDeviation="1" result="b"/>
      <feMerge><feMergeNode in="b"/><feMergeNode in="SourceGraphic"/></feMerge>
    </filter>
  </defs>

  <!-- Background -->
  <rect width="64" height="64" rx="14" fill="#0B1120"/>

  <!-- Pixel Character (scaled from logo-a, centered in 64x64) -->
  <!-- Head -->
  <rect x="22" y="8" width="6" height="6" fill="#06B6D4"/>
  <rect x="28" y="8" width="6" height="6" fill="#06B6D4"/>
  <rect x="34" y="8" width="6" height="6" fill="#06B6D4"/>
  <rect x="16" y="14" width="6" height="6" fill="#06B6D4"/>
  <rect x="22" y="14" width="6" height="6" fill="#E0F2FE"/>
  <rect x="28" y="14" width="6" height="6" fill="#2563EB"/>
  <rect x="34" y="14" width="6" height="6" fill="#E0F2FE"/>
  <rect x="40" y="14" width="6" height="6" fill="#06B6D4"/>
  <rect x="16" y="20" width="6" height="6" fill="#06B6D4"/>
  <rect x="22" y="20" width="6" height="6" fill="#06B6D4"/>
  <rect x="28" y="20" width="6" height="6" fill="#06B6D4"/>
  <rect x="34" y="20" width="6" height="6" fill="#06B6D4"/>
  <rect x="40" y="20" width="6" height="6" fill="#06B6D4"/>

  <!-- Body -->
  <rect x="22" y="26" width="6" height="6" fill="#2563EB"/>
  <rect x="28" y="26" width="6" height="6" fill="#2563EB"/>
  <rect x="34" y="26" width="6" height="6" fill="#2563EB"/>
  <rect x="10" y="32" width="6" height="6" fill="#6366F1"/>
  <rect x="22" y="32" width="6" height="6" fill="#2563EB"/>
  <rect x="28" y="32" width="6" height="6" fill="#2563EB"/>
  <rect x="34" y="32" width="6" height="6" fill="#2563EB"/>
  <rect x="46" y="32" width="6" height="6" fill="#6366F1"/>

  <!-- Legs -->
  <rect x="22" y="38" width="6" height="6" fill="#2563EB"/>
  <rect x="34" y="38" width="6" height="6" fill="#2563EB"/>
  <rect x="22" y="44" width="6" height="6" fill="#1E40AF"/>
  <rect x="34" y="44" width="6" height="6" fill="#1E40AF"/>

  <!-- Soul spark -->
  <rect x="46" y="6" width="5" height="5" fill="#FBBF24" filter="url(#g)"/>
  <rect x="51" y="11" width="3" height="3" fill="#FBBF24" opacity="0.5"/>
</svg>
